<svg xmlns="http://www.w3.org/2000/svg" version="1.1" height="144" width="560" viewBox="0 0 560 144" class="diagram" text-anchor="middle" font-family="monospace" font-size="13px" stroke-linecap="round">
<text class="ascii" display="none"><![CDATA[
______           _             _      ______           _
|  _  \         | |           (_)     |  _  \         | |
| | | |___   ___| | _____ _ __ _ _ __ | | | |___   ___| | _____ _ __
| | | / _ \ / __| |/ / _ | '__| | '_ \| | | / _ \ / __| |/ / _ | '__|
| |/ | (_) | (__|   |  __| |  | | | | | |/ | (_) | (__|   |  __| |
|___/ \___/ \___|_|\_\___|_|  |_|_| |_|___/ \___/ \___|_|\_\___|_|


]]></text>
<path d="M 8,24 L 8,104" fill="none" stroke="black"/>
<path d="M 24,40 L 24,80" fill="none" stroke="black"/>
<path d="M 40,40 L 40,64" fill="none" stroke="black"/>
<path d="M 136,24 L 136,104" fill="none" stroke="black"/>
<path d="M 152,24 L 152,64" fill="none" stroke="black"/>
<path d="M 208,56 L 208,104" fill="none" stroke="black"/>
<path d="M 224,72 L 224,104" fill="none" stroke="black"/>
<path d="M 248,56 L 248,104" fill="none" stroke="black"/>
<path d="M 264,56 L 264,104" fill="none" stroke="black"/>
<path d="M 280,72 L 280,104" fill="none" stroke="black"/>
<path d="M 296,72 L 296,104" fill="none" stroke="black"/>
<path d="M 312,24 L 312,104" fill="none" stroke="black"/>
<path d="M 328,40 L 328,80" fill="none" stroke="black"/>
<path d="M 344,40 L 344,64" fill="none" stroke="black"/>
<path d="M 440,24 L 440,104" fill="none" stroke="black"/>
<path d="M 456,24 L 456,64" fill="none" stroke="black"/>
<path d="M 512,56 L 512,104" fill="none" stroke="black"/>
<path d="M 528,72 L 528,104" fill="none" stroke="black"/>
<path d="M 552,56 L 552,72" fill="none" stroke="black"/>
<path d="M 52,24 L 56,32" fill="none" stroke="black"/>
<path d="M 84,56 L 96,80" fill="none" stroke="black"/>
<path d="M 300,56 L 312,80" fill="none" stroke="black"/>
<path d="M 356,24 L 360,32" fill="none" stroke="black"/>
<path d="M 388,56 L 400,80" fill="none" stroke="black"/>
<path d="M 32,80 L 40,64" fill="none" stroke="black"/>
<path d="M 48,80 L 60,56" fill="none" stroke="black"/>
<path d="M 96,80 L 108,56" fill="none" stroke="black"/>
<path d="M 160,64 L 164,56" fill="none" stroke="black"/>
<path d="M 168,80 L 180,56" fill="none" stroke="black"/>
<path d="M 336,80 L 344,64" fill="none" stroke="black"/>
<path d="M 352,80 L 364,56" fill="none" stroke="black"/>
<path d="M 400,80 L 412,56" fill="none" stroke="black"/>
<path d="M 464,64 L 468,56" fill="none" stroke="black"/>
<path d="M 472,80 L 484,56" fill="none" stroke="black"/>
<path d="M 4,24 L 52,24" fill="none" stroke="black"/>
<path d="M 308,24 L 356,24" fill="none" stroke="black"/>
<path d="M 56,56 L 84,56" fill="none" stroke="black"/>
<path d="M 108,56 L 136,56" fill="none" stroke="black"/>
<path d="M 164,56 L 208,56" fill="none" stroke="black"/>
<path d="M 224,56 L 248,56" fill="none" stroke="black"/>
<path d="M 280,56 L 300,56" fill="none" stroke="black"/>
<path d="M 360,56 L 388,56" fill="none" stroke="black"/>
<path d="M 412,56 L 440,56" fill="none" stroke="black"/>
<path d="M 468,56 L 512,56" fill="none" stroke="black"/>
<path d="M 528,56 L 552,56" fill="none" stroke="black"/>
<path d="M 116,72 L 136,72" fill="none" stroke="black"/>
<path d="M 224,72 L 248,72" fill="none" stroke="black"/>
<path d="M 420,72 L 440,72" fill="none" stroke="black"/>
<path d="M 528,72 L 552,72" fill="none" stroke="black"/>
<path d="M 116,88 L 136,88" fill="none" stroke="black"/>
<path d="M 188,88 L 208,88" fill="none" stroke="black"/>
<path d="M 420,88 L 440,88" fill="none" stroke="black"/>
<path d="M 492,88 L 512,88" fill="none" stroke="black"/>
<path d="M 8,104 L 36,104" fill="none" stroke="black"/>
<path d="M 60,104 L 84,104" fill="none" stroke="black"/>
<path d="M 108,104 L 136,104" fill="none" stroke="black"/>
<path d="M 180,104 L 208,104" fill="none" stroke="black"/>
<path d="M 312,104 L 340,104" fill="none" stroke="black"/>
<path d="M 364,104 L 388,104" fill="none" stroke="black"/>
<path d="M 412,104 L 440,104" fill="none" stroke="black"/>
<path d="M 484,104 L 512,104" fill="none" stroke="black"/>
<g class="text">
<text x="144" y="20">_</text>
<text x="256" y="20">_</text>
<text x="448" y="20">_</text>
<text x="32" y="36">_</text>
<text x="256" y="36">(_)</text>
<text x="336" y="36">_</text>
<text x="56" y="52">|</text>
<text x="216" y="52">_</text>
<text x="264" y="52">_ _</text>
<text x="360" y="52">|</text>
<text x="520" y="52">_</text>
<text x="72" y="68">_</text>
<text x="192" y="68">_</text>
<text x="224" y="68">'</text>
<text x="284" y="68">'_</text>
<text x="376" y="68">_</text>
<text x="496" y="68">_</text>
<text x="528" y="68">'</text>
<text x="72" y="84">(_)</text>
<text x="112" y="84">(</text>
<text x="376" y="84">(_)</text>
<text x="416" y="84">(</text>
<text x="48" y="100">/ \</text>
<text x="96" y="100">/ \</text>
<text x="160" y="100">_|\_\</text>
<text x="216" y="100">_</text>
<text x="256" y="100">_</text>
<text x="272" y="100">_</text>
<text x="304" y="100">_</text>
<text x="352" y="100">/ \</text>
<text x="400" y="100">/ \</text>
<text x="464" y="100">_|\_\</text>
<text x="520" y="100">_</text>
</g>
<g class="source" fill="#0DB7ED" font-size="12px">
<text x="10" y="22">_</text><text x="18" y="22">_</text><text x="26" y="22">_</text><text x="34" y="22">_</text><text x="42" y="22">_</text><text x="50" y="22">_</text><text x="146" y="22">_</text><text x="258" y="22">_</text><text x="314" y="22">_</text><text x="322" y="22">_</text><text x="330" y="22">_</text><text x="338" y="22">_</text><text x="346" y="22">_</text><text x="354" y="22">_</text><text x="450" y="22">_</text><text x="10" y="38">|</text><text x="34" y="38">_</text><text x="58" y="38">\</text><text x="138" y="38">|</text><text x="154" y="38">|</text><text x="250" y="38">(</text><text x="258" y="38">_</text><text x="266" y="38">)</text><text x="314" y="38">|</text><text x="338" y="38">_</text><text x="362" y="38">\</text><text x="442" y="38">|</text><text x="458" y="38">|</text><text x="10" y="54">|</text><text x="26" y="54">|</text><text x="42" y="54">|</text><text x="58" y="54">|</text><text x="66" y="54">_</text><text x="74" y="54">_</text><text x="82" y="54">_</text><text x="114" y="54">_</text><text x="122" y="54">_</text><text x="130" y="54">_</text><text x="138" y="54">|</text><text x="154" y="54">|</text><text x="170" y="54">_</text><text x="178" y="54">_</text><text x="186" y="54">_</text><text x="194" y="54">_</text><text x="202" y="54">_</text><text x="218" y="54">_</text><text x="234" y="54">_</text><text x="242" y="54">_</text><text x="258" y="54">_</text><text x="274" y="54">_</text><text x="290" y="54">_</text><text x="298" y="54">_</text><text x="314" y="54">|</text><text x="330" y="54">|</text><text x="346" y="54">|</text><text x="362" y="54">|</text><text x="370" y="54">_</text><text x="378" y="54">_</text><text x="386" y="54">_</text><text x="418" y="54">_</text><text x="426" y="54">_</text><text x="434" y="54">_</text><text x="442" y="54">|</text><text x="458" y="54">|</text><text x="474" y="54">_</text><text x="482" y="54">_</text><text x="490" y="54">_</text><text x="498" y="54">_</text><text x="506" y="54">_</text><text x="522" y="54">_</text><text x="538" y="54">_</text><text x="546" y="54">_</text><text x="10" y="70">|</text><text x="26" y="70">|</text><text x="42" y="70">|</text><text x="58" y="70">/</text><text x="74" y="70">_</text><text x="90" y="70">\</text><text x="106" y="70">/</text><text x="122" y="70">_</text><text x="130" y="70">_</text><text x="138" y="70">|</text><text x="154" y="70">|</text><text x="162" y="70">/</text><text x="178" y="70">/</text><text x="194" y="70">_</text><text x="210" y="70">|</text><text x="226" y="70">'</text><text x="234" y="70">_</text><text x="242" y="70">_</text><text x="250" y="70">|</text><text x="266" y="70">|</text><text x="282" y="70">'</text><text x="290" y="70">_</text><text x="306" y="70">\</text><text x="314" y="70">|</text><text x="330" y="70">|</text><text x="346" y="70">|</text><text x="362" y="70">/</text><text x="378" y="70">_</text><text x="394" y="70">\</text><text x="410" y="70">/</text><text x="426" y="70">_</text><text x="434" y="70">_</text><text x="442" y="70">|</text><text x="458" y="70">|</text><text x="466" y="70">/</text><text x="482" y="70">/</text><text x="498" y="70">_</text><text x="514" y="70">|</text><text x="530" y="70">'</text><text x="538" y="70">_</text><text x="546" y="70">_</text><text x="554" y="70">|</text><text x="10" y="86">|</text><text x="26" y="86">|</text><text x="34" y="86">/</text><text x="50" y="86">|</text><text x="66" y="86">(</text><text x="74" y="86">_</text><text x="82" y="86">)</text><text x="98" y="86">|</text><text x="114" y="86">(</text><text x="122" y="86">_</text><text x="130" y="86">_</text><text x="138" y="86">|</text><text x="170" y="86">|</text><text x="194" y="86">_</text><text x="202" y="86">_</text><text x="210" y="86">|</text><text x="226" y="86">|</text><text x="250" y="86">|</text><text x="266" y="86">|</text><text x="282" y="86">|</text><text x="298" y="86">|</text><text x="314" y="86">|</text><text x="330" y="86">|</text><text x="338" y="86">/</text><text x="354" y="86">|</text><text x="370" y="86">(</text><text x="378" y="86">_</text><text x="386" y="86">)</text><text x="402" y="86">|</text><text x="418" y="86">(</text><text x="426" y="86">_</text><text x="434" y="86">_</text><text x="442" y="86">|</text><text x="474" y="86">|</text><text x="498" y="86">_</text><text x="506" y="86">_</text><text x="514" y="86">|</text><text x="530" y="86">|</text><text x="10" y="102">|</text><text x="18" y="102">_</text><text x="26" y="102">_</text><text x="34" y="102">_</text><text x="42" y="102">/</text><text x="58" y="102">\</text><text x="66" y="102">_</text><text x="74" y="102">_</text><text x="82" y="102">_</text><text x="90" y="102">/</text><text x="106" y="102">\</text><text x="114" y="102">_</text><text x="122" y="102">_</text><text x="130" y="102">_</text><text x="138" y="102">|</text><text x="146" y="102">_</text><text x="154" y="102">|</text><text x="162" y="102">\</text><text x="170" y="102">_</text><text x="178" y="102">\</text><text x="186" y="102">_</text><text x="194" y="102">_</text><text x="202" y="102">_</text><text x="210" y="102">|</text><text x="218" y="102">_</text><text x="226" y="102">|</text><text x="250" y="102">|</text><text x="258" y="102">_</text><text x="266" y="102">|</text><text x="274" y="102">_</text><text x="282" y="102">|</text><text x="298" y="102">|</text><text x="306" y="102">_</text><text x="314" y="102">|</text><text x="322" y="102">_</text><text x="330" y="102">_</text><text x="338" y="102">_</text><text x="346" y="102">/</text><text x="362" y="102">\</text><text x="370" y="102">_</text><text x="378" y="102">_</text><text x="386" y="102">_</text><text x="394" y="102">/</text><text x="410" y="102">\</text><text x="418" y="102">_</text><text x="426" y="102">_</text><text x="434" y="102">_</text><text x="442" y="102">|</text><text x="450" y="102">_</text><text x="458" y="102">|</text><text x="466" y="102">\</text><text x="474" y="102">_</text><text x="482" y="102">\</text><text x="490" y="102">_</text><text x="498" y="102">_</text><text x="506" y="102">_</text><text x="514" y="102">|</text><text x="522" y="102">_</text><text x="530" y="102">|</text></g></svg>
